<svg id="buttons" enable-background="new 0 0 300 300" height="512" viewBox="0 0 300 300" width="512" xmlns="http://www.w3.org/2000/svg"><g><circle cx="245.674" cy="218" r="4.529"/><circle cx="73.674" cy="70" r="4.529"/><path d="m57.85 215.824c-1.562-1.562-4.094-1.562-5.656 0l-4.52 4.52-4.52-4.52c-1.562-1.562-4.094-1.562-5.656 0s-1.562 4.094 0 5.656l4.52 4.52-4.52 4.52c-1.562 1.562-1.562 4.094 0 5.656.781.781 1.805 1.172 2.828 1.172s2.047-.391 2.828-1.172l4.52-4.52 4.52 4.52c.781.781 1.805 1.172 2.828 1.172s2.047-.391 2.828-1.172c1.562-1.562 1.562-4.094 0-5.656l-4.52-4.52 4.52-4.52c1.562-1.562 1.562-4.093 0-5.656z"/><path d="m250.57 112h-49.793c-2.774 0-5.339.879-7.459 2.355 1.477-2.121 2.355-4.687 2.355-7.461v-49.789c0-7.227-5.879-13.105-13.104-13.105h-49.793c-7.225 0-13.104 5.879-13.104 13.105v49.789c0 2.774.879 5.34 2.355 7.461-2.12-1.477-4.685-2.355-7.459-2.355h-49.791c-7.225 0-13.104 5.879-13.104 13.105v49.789c0 7.227 5.879 13.105 13.104 13.105h49.793c2.773 0 5.338-.878 7.458-2.354-1.476 2.12-2.355 4.686-2.355 7.46v49.789c0 7.227 5.879 13.105 13.104 13.105h49.793c7.225 0 13.104-5.879 13.104-13.105v-49.789c0-2.774-.879-5.34-2.355-7.46 2.12 1.476 4.685 2.354 7.458 2.354h49.793c7.225 0 13.104-5.879 13.104-13.105v-49.789c0-7.226-5.879-13.105-13.104-13.105zm-122.896 62.895v-49.789c0-2.816 2.289-5.105 5.104-5.105h49.793c2.814 0 5.104 2.289 5.104 5.105v49.789c0 2.816-2.289 5.105-5.104 5.105h-49.793c-2.815 0-5.104-2.289-5.104-5.105zm0-117.79c0-2.816 2.289-5.105 5.104-5.105h49.793c2.814 0 5.104 2.289 5.104 5.105v49.789c0 2.816-2.289 5.105-5.104 5.105h-49.793c-2.814 0-5.104-2.289-5.104-5.105zm-13.104 122.895h-49.793c-2.814 0-5.104-2.289-5.104-5.105v-49.789c0-2.816 2.289-5.105 5.104-5.105h49.793c2.814 0 5.104 2.289 5.104 5.105v49.789c0 2.816-2.289 5.105-5.104 5.105zm73.104 62.895c0 2.816-2.289 5.105-5.104 5.105h-49.793c-2.814 0-5.104-2.289-5.104-5.105v-49.789c0-2.816 2.289-5.105 5.104-5.105h49.793c2.814 0 5.104 2.289 5.104 5.105zm68-68c0 2.816-2.289 5.105-5.104 5.105h-49.793c-2.814 0-5.104-2.289-5.104-5.105v-49.789c0-2.816 2.289-5.105 5.104-5.105h49.793c2.814 0 5.104 2.289 5.104 5.105z"/><path d="m177.635 146.516-32-18c-1.238-.703-2.754-.688-3.98.031s-1.98 2.031-1.98 3.453v36c0 1.422.754 2.734 1.98 3.453.623.363 1.322.547 2.02.547.676 0 1.352-.172 1.961-.516l32-18c1.26-.707 2.039-2.039 2.039-3.484s-.78-2.777-2.04-3.484zm-29.961 14.644v-22.32l19.842 11.16z"/><path d="m151.674 96c2.209 0 4-1.789 4-4v-20c0-2.211-1.791-4-4-4s-4 1.789-4 4v20c0 2.211 1.791 4 4 4z"/><path d="m163.674 96c2.209 0 4-1.789 4-4v-20c0-2.211-1.791-4-4-4s-4 1.789-4 4v20c0 2.211 1.791 4 4 4z"/><path d="m167.674 204h-20c-2.209 0-4 1.789-4 4v20c0 2.211 1.791 4 4 4h20c2.209 0 4-1.789 4-4v-20c0-2.211-1.791-4-4-4zm-4 20h-12v-12h12z"/><path d="m226.502 145.172-12-12c-1.562-1.562-4.094-1.562-5.656 0s-1.562 4.094 0 5.656l9.172 9.172-9.172 9.172c-1.562 1.562-1.562 4.094 0 5.656.781.781 1.805 1.172 2.828 1.172s2.047-.391 2.828-1.172l12-12c1.562-1.562 1.562-4.094 0-5.656z"/><path d="m234.502 133.172c-1.562-1.562-4.094-1.562-5.656 0s-1.562 4.094 0 5.656l9.172 9.172-9.172 9.172c-1.562 1.562-1.562 4.094 0 5.656.781.781 1.805 1.172 2.828 1.172s2.047-.391 2.828-1.172l12-12c1.562-1.562 1.562-4.094 0-5.656z"/><path d="m106.502 133.172c-1.562-1.562-4.094-1.562-5.656 0l-12 12c-1.562 1.562-1.562 4.094 0 5.656l12 12c.781.781 1.805 1.172 2.828 1.172s2.047-.391 2.828-1.172c1.562-1.562 1.562-4.094 0-5.656l-9.172-9.172 9.172-9.172c1.562-1.562 1.562-4.094 0-5.656z"/><path d="m77.33 148 9.172-9.172c1.562-1.562 1.562-4.094 0-5.656s-4.094-1.562-5.656 0l-12 12c-1.562 1.562-1.562 4.094 0 5.656l12 12c.781.781 1.805 1.172 2.828 1.172s2.047-.391 2.828-1.172c1.562-1.562 1.562-4.094 0-5.656z"/></g></svg>